<mxfile host="Electron" agent="Mozilla/5.0 (Windows NT 10.0; Win64; x64) AppleWebKit/537.36 (KHTML, like Gecko) draw.io/28.1.2 Chrome/138.0.7204.243 Electron/37.4.0 Safari/537.36" version="28.1.2">
  <diagram name="Seite-1" id="MLdvsuBoVBNNbqFwGJKx">
    <mxGraphModel dx="1042" dy="722" grid="1" gridSize="10" guides="1" tooltips="1" connect="1" arrows="1" fold="1" page="1" pageScale="1" pageWidth="827" pageHeight="1169" math="0" shadow="0">
      <root>
        <mxCell id="0" />
        <mxCell id="1" parent="0" />
        <mxCell id="hLdzfOv6bydcJTNs0kS2-8" value="" style="edgeStyle=orthogonalEdgeStyle;rounded=0;orthogonalLoop=1;jettySize=auto;html=1;" edge="1" parent="1" source="hLdzfOv6bydcJTNs0kS2-1" target="hLdzfOv6bydcJTNs0kS2-2">
          <mxGeometry relative="1" as="geometry" />
        </mxCell>
        <mxCell id="hLdzfOv6bydcJTNs0kS2-1" value="Kunde bestellt" style="shape=process;whiteSpace=wrap;html=1;backgroundOutline=1;fillColor=#1ba1e2;fontColor=#ffffff;strokeColor=#006EAF;" vertex="1" parent="1">
          <mxGeometry x="610" y="150" width="120" height="60" as="geometry" />
        </mxCell>
        <mxCell id="hLdzfOv6bydcJTNs0kS2-9" value="" style="edgeStyle=orthogonalEdgeStyle;rounded=0;orthogonalLoop=1;jettySize=auto;html=1;" edge="1" parent="1" source="hLdzfOv6bydcJTNs0kS2-2" target="hLdzfOv6bydcJTNs0kS2-3">
          <mxGeometry relative="1" as="geometry" />
        </mxCell>
        <mxCell id="hLdzfOv6bydcJTNs0kS2-2" value="Kellner nimmt Bestellung auf" style="shape=process;whiteSpace=wrap;html=1;backgroundOutline=1;fillColor=#76608a;fontColor=#ffffff;strokeColor=#432D57;" vertex="1" parent="1">
          <mxGeometry x="610" y="250" width="120" height="60" as="geometry" />
        </mxCell>
        <mxCell id="hLdzfOv6bydcJTNs0kS2-10" value="" style="edgeStyle=orthogonalEdgeStyle;rounded=0;orthogonalLoop=1;jettySize=auto;html=1;" edge="1" parent="1" source="hLdzfOv6bydcJTNs0kS2-3" target="hLdzfOv6bydcJTNs0kS2-5">
          <mxGeometry relative="1" as="geometry" />
        </mxCell>
        <mxCell id="hLdzfOv6bydcJTNs0kS2-3" value="Kellner zur KÃ¼che" style="shape=process;whiteSpace=wrap;html=1;backgroundOutline=1;fillColor=#647687;fontColor=#ffffff;strokeColor=#314354;" vertex="1" parent="1">
          <mxGeometry x="610" y="340" width="120" height="60" as="geometry" />
        </mxCell>
        <mxCell id="hLdzfOv6bydcJTNs0kS2-12" value="" style="edgeStyle=orthogonalEdgeStyle;rounded=0;orthogonalLoop=1;jettySize=auto;html=1;" edge="1" parent="1" source="hLdzfOv6bydcJTNs0kS2-5" target="hLdzfOv6bydcJTNs0kS2-11">
          <mxGeometry relative="1" as="geometry" />
        </mxCell>
        <mxCell id="hLdzfOv6bydcJTNs0kS2-14" value="" style="edgeStyle=orthogonalEdgeStyle;rounded=0;orthogonalLoop=1;jettySize=auto;html=1;" edge="1" parent="1" source="hLdzfOv6bydcJTNs0kS2-5" target="hLdzfOv6bydcJTNs0kS2-13">
          <mxGeometry relative="1" as="geometry" />
        </mxCell>
        <mxCell id="hLdzfOv6bydcJTNs0kS2-5" value="Kellner bringt das Essen" style="shape=process;whiteSpace=wrap;html=1;backgroundOutline=1;fillColor=#6d8764;fontColor=#ffffff;strokeColor=#3A5431;" vertex="1" parent="1">
          <mxGeometry x="610" y="430" width="120" height="60" as="geometry" />
        </mxCell>
        <mxCell id="hLdzfOv6bydcJTNs0kS2-7" value="" style="edgeStyle=orthogonalEdgeStyle;rounded=0;orthogonalLoop=1;jettySize=auto;html=1;" edge="1" parent="1" source="hLdzfOv6bydcJTNs0kS2-6" target="hLdzfOv6bydcJTNs0kS2-1">
          <mxGeometry relative="1" as="geometry" />
        </mxCell>
        <mxCell id="hLdzfOv6bydcJTNs0kS2-6" value="start" style="ellipse;whiteSpace=wrap;html=1;" vertex="1" parent="1">
          <mxGeometry x="610" y="30" width="120" height="80" as="geometry" />
        </mxCell>
        <mxCell id="hLdzfOv6bydcJTNs0kS2-11" value="End" style="ellipse;whiteSpace=wrap;html=1;" vertex="1" parent="1">
          <mxGeometry x="610" y="520" width="120" height="80" as="geometry" />
        </mxCell>
        <mxCell id="hLdzfOv6bydcJTNs0kS2-13" value="return Essen" style="shape=document;whiteSpace=wrap;html=1;boundedLbl=1;fillColor=#6d8764;strokeColor=#3A5431;fontColor=#ffffff;" vertex="1" parent="1">
          <mxGeometry x="810" y="420" width="120" height="80" as="geometry" />
        </mxCell>
        <mxCell id="hLdzfOv6bydcJTNs0kS2-15" value="" style="edgeStyle=orthogonalEdgeStyle;rounded=0;orthogonalLoop=1;jettySize=auto;html=1;" edge="1" parent="1" source="hLdzfOv6bydcJTNs0kS2-16">
          <mxGeometry relative="1" as="geometry">
            <mxPoint x="130" y="250" as="targetPoint" />
          </mxGeometry>
        </mxCell>
        <mxCell id="hLdzfOv6bydcJTNs0kS2-16" value="Kunde bestellt&lt;div&gt;(ruf Kellner)&lt;/div&gt;" style="shape=process;whiteSpace=wrap;html=1;backgroundOutline=1;fillColor=#1ba1e2;fontColor=#ffffff;strokeColor=#006EAF;" vertex="1" parent="1">
          <mxGeometry x="70" y="150" width="120" height="60" as="geometry" />
        </mxCell>
        <mxCell id="hLdzfOv6bydcJTNs0kS2-21" value="" style="edgeStyle=orthogonalEdgeStyle;rounded=0;orthogonalLoop=1;jettySize=auto;html=1;" edge="1" parent="1" source="hLdzfOv6bydcJTNs0kS2-23" target="hLdzfOv6bydcJTNs0kS2-26">
          <mxGeometry relative="1" as="geometry" />
        </mxCell>
        <mxCell id="hLdzfOv6bydcJTNs0kS2-29" value="" style="edgeStyle=orthogonalEdgeStyle;rounded=0;orthogonalLoop=1;jettySize=auto;html=1;" edge="1" parent="1" source="hLdzfOv6bydcJTNs0kS2-23" target="hLdzfOv6bydcJTNs0kS2-28">
          <mxGeometry relative="1" as="geometry" />
        </mxCell>
        <mxCell id="hLdzfOv6bydcJTNs0kS2-23" value="Kellner bringt das Essen" style="shape=process;whiteSpace=wrap;html=1;backgroundOutline=1;fillColor=#6d8764;fontColor=#ffffff;strokeColor=#3A5431;" vertex="1" parent="1">
          <mxGeometry x="70" y="250" width="120" height="60" as="geometry" />
        </mxCell>
        <mxCell id="hLdzfOv6bydcJTNs0kS2-24" value="" style="edgeStyle=orthogonalEdgeStyle;rounded=0;orthogonalLoop=1;jettySize=auto;html=1;" edge="1" parent="1" source="hLdzfOv6bydcJTNs0kS2-25" target="hLdzfOv6bydcJTNs0kS2-16">
          <mxGeometry relative="1" as="geometry" />
        </mxCell>
        <mxCell id="hLdzfOv6bydcJTNs0kS2-25" value="start" style="ellipse;whiteSpace=wrap;html=1;" vertex="1" parent="1">
          <mxGeometry x="70" y="30" width="120" height="80" as="geometry" />
        </mxCell>
        <mxCell id="hLdzfOv6bydcJTNs0kS2-26" value="End" style="ellipse;whiteSpace=wrap;html=1;" vertex="1" parent="1">
          <mxGeometry x="70" y="340" width="120" height="80" as="geometry" />
        </mxCell>
        <mxCell id="hLdzfOv6bydcJTNs0kS2-28" value="return Essen" style="shape=document;whiteSpace=wrap;html=1;boundedLbl=1;fillColor=#6d8764;strokeColor=#3A5431;fontColor=#ffffff;" vertex="1" parent="1">
          <mxGeometry x="270" y="240" width="120" height="80" as="geometry" />
        </mxCell>
      </root>
    </mxGraphModel>
  </diagram>
</mxfile>
